<?xml version="1.0"?>
<svg xmlns="http://www.w3.org/2000/svg" width="158" height="58" viewBox="0 0 158 58" fill="none"><mask id="mask0_566_1785" style="mask-type:luminance" maskUnits="userSpaceOnUse" x="5" y="0" width="148" height="58"><path d="M152.209 0H5.79102V57.75H152.209V0Z" fill="white"/></mask><g mask="url(#mask0_566_1785)"><path fill-rule="evenodd" clip-rule="evenodd" d="M17.3489 48.946H14.3661L9.69172 43.6389H15.3116C15.7118 43.6389 15.9117 43.3133 15.9117 42.6622C15.9117 42.011 15.7116 41.6854 15.3116 41.6854H8.54581V48.9457H6.36328V39.474H15.439C16.2757 39.474 16.9365 39.8059 17.4214 40.4694C17.87 41.0713 18.0942 41.8021 18.0942 42.6622C18.0942 43.5221 17.87 44.2531 17.4214 44.855C16.9365 45.5183 16.2755 45.8501 15.439 45.8501H14.6025L17.3489 48.946ZM36.6566 41.6854H28.8539V43.1045H36.1474V45.3157H28.8539V46.7346H36.6384V48.946H26.6714V39.4743H36.6566V41.6854ZM55.4916 45.9485C55.4916 46.8053 55.1976 47.5208 54.6095 48.0922C54.0215 48.6603 53.3032 48.946 52.4543 48.946H45.2335V42.9756H47.4161V46.7346H52.4694C53.0301 46.7346 53.309 46.4705 53.309 45.9453V42.4747C53.309 41.9495 53.0301 41.6854 52.4694 41.6854H45.2335V39.474H52.4543C53.303 39.474 54.0215 39.7598 54.6095 40.3278C55.1976 40.8989 55.4916 41.6148 55.4916 42.4715V45.9485ZM75.2357 46.0251C75.2357 46.8207 74.9993 47.4992 74.5265 48.0644C74.0169 48.651 73.3748 48.9457 72.5985 48.9457H64.5234V46.7345H72.5985C72.9012 46.7345 73.0533 46.4981 73.0533 46.0249C73.0533 45.5518 72.9012 45.3155 72.5985 45.3155H66.7238C65.9475 45.3155 65.3054 45.0206 64.7958 44.4311C64.3108 43.8781 64.0687 43.2025 64.0687 42.4038C64.0687 41.6053 64.3173 40.9174 64.8138 40.3399C65.3112 39.7626 65.9475 39.4739 66.7238 39.4739H74.7997V41.6851H66.7058C66.4023 41.6851 66.251 41.9249 66.251 42.4038C66.251 42.8707 66.4023 43.1043 66.7058 43.1043H72.5928C73.3715 43.1043 74.0145 43.3991 74.5265 43.9856C74.9993 44.548 75.2357 45.2297 75.2357 46.0251ZM94.4345 41.6854H90.2145V48.9457H88.0322V41.6854H83.8122V39.474H94.4345V41.6854ZM114.488 45.9485C114.488 46.8053 114.191 47.5208 113.597 48.0922C113.003 48.6603 112.281 48.946 111.433 48.946H105.939C105.091 48.946 104.37 48.6602 103.775 48.0922C103.181 47.5211 102.884 46.8053 102.884 45.9485V42.4718C102.884 41.6151 103.181 40.8993 103.775 40.328C104.37 39.7598 105.091 39.4743 105.939 39.4743H111.433C112.281 39.4743 113.003 39.7601 113.597 40.328C114.191 40.8991 114.488 41.6151 114.488 42.4718V45.9485ZM112.306 45.9453V42.4747C112.306 41.9495 112.014 41.6854 111.433 41.6854H105.939C105.358 41.6854 105.067 41.9495 105.067 42.4747V45.9453C105.067 46.4705 105.358 46.7346 105.939 46.7346H111.433C112.014 46.7346 112.306 46.4705 112.306 45.9453ZM133.05 48.946H130.867L125.248 42.5701V48.946H123.065V39.4743H125.248L130.867 45.8132V39.4743H133.05V48.946ZM151.612 41.6854H143.81V43.1045H151.103V45.3157H143.81V46.7346H151.594V48.946H141.627V39.4743H151.612V41.6854Z" fill="#B21E24"/><path fill-rule="evenodd" clip-rule="evenodd" d="M42.9598 57.7499H42.2081V55.7635L40.8676 57.6992L39.527 55.7635V57.7499H38.7754V54.4877H39.5648L40.8678 56.3728L42.1771 54.4877H42.9603L42.9598 57.7499ZM49.801 57.7499H49.0494V56.7155H47.0699V55.9537H49.0494V55.497C49.0494 55.3321 48.9951 55.2495 48.8865 55.2495H46.7566C46.652 55.2495 46.5999 55.3321 46.5999 55.4958V57.7499H45.8481V55.4947C45.8481 55.2208 45.9326 54.9839 46.1017 54.785C46.2709 54.587 46.4892 54.4877 46.7563 54.4877H48.8863C49.1577 54.4877 49.3781 54.5873 49.5473 54.785C49.7163 54.9839 49.8008 55.2208 49.8008 55.4947L49.801 57.7499ZM56.1288 57.7499H55.3771L53.4414 55.5539V57.7499H52.6898V54.4877H53.4414L55.3771 56.6709V54.4877H56.1288V57.7499ZM62.9769 56.741C62.9769 57.0162 62.891 57.2529 62.7192 57.4519C62.5482 57.651 62.329 57.7502 62.0615 57.7502H59.9315C59.6604 57.7502 59.44 57.6508 59.2709 57.4519C59.1018 57.2529 59.0173 57.0162 59.0173 56.741V54.4879H59.769V56.741C59.769 56.906 59.8235 56.9885 59.9315 56.9885H62.0681C62.1728 56.9885 62.2243 56.906 62.2243 56.741V54.4879H62.976L62.9769 56.741ZM69.3039 55.2495H66.6169V55.7382H69.1346V56.4998H66.6169V57.7499H65.8651V54.4877H69.3039V55.2495ZM76.0637 57.7499H75.312V56.7155H73.3325V55.9537H75.312V55.497C75.312 55.3321 75.258 55.2495 75.1492 55.2495H73.0192C72.9153 55.2495 72.8629 55.3321 72.8629 55.4958V57.7499H72.1112V55.4947C72.1112 55.2208 72.1963 54.9839 72.3648 54.785C72.5341 54.587 72.7525 54.4877 73.0192 54.4877H75.1492C75.4208 54.4877 75.6408 54.5873 75.8101 54.785C75.9794 54.9839 76.0637 55.2208 76.0637 55.4947V57.7499ZM82.4979 57.7499H80.0047C79.7127 57.7499 79.464 57.6517 79.2595 57.4559C79.055 57.2591 78.9528 57.0125 78.9528 56.7174V55.52C78.9528 55.2246 79.055 54.9783 79.2595 54.7816C79.464 54.5858 79.7127 54.4873 80.0047 54.4873H82.4979V55.249H80.0047C79.8043 55.249 79.7045 55.3399 79.7045 55.5209V56.7162C79.7045 56.897 79.8043 56.988 80.0047 56.988H82.4979V57.7499ZM89.045 55.2495H87.5915V57.7499H86.8397V55.2495H85.387V54.4877H89.045V55.2495ZM95.849 56.741C95.849 57.0162 95.7631 57.2529 95.5921 57.4519C95.4203 57.651 95.2011 57.7502 94.9345 57.7502H92.8044C92.5329 57.7502 92.312 57.6508 92.1435 57.4519C91.9742 57.2529 91.8899 57.0162 91.8899 56.741V54.4879H92.6417V56.741C92.6417 56.906 92.6957 56.9885 92.8044 56.9885H94.9402C95.0449 56.9885 95.0972 56.906 95.0972 56.741V54.4879H95.849V56.741ZM102.521 57.7499H101.494L99.8841 55.9221H101.819C101.957 55.9221 102.026 55.8102 102.026 55.5858C102.026 55.3614 101.957 55.2495 101.819 55.2495H99.489V57.7499H98.7372V54.4877H101.864C102.151 54.4877 102.379 54.6019 102.546 54.8303C102.7 55.0378 102.778 55.2896 102.778 55.5858C102.778 55.882 102.7 56.1338 102.546 56.3412C102.379 56.5697 102.151 56.6839 101.864 56.6839H101.575L102.521 57.7499ZM106.418 57.7499H105.666V54.4877H106.418V57.7499ZM112.746 57.7499H111.994L110.058 55.5539V57.7499H109.307V54.4877H110.058L111.994 56.6709V54.4877H112.746V57.7499ZM119.18 57.7499H116.687C116.395 57.7499 116.146 57.6517 115.941 57.4559C115.736 57.2591 115.634 57.0125 115.634 56.7174V55.52C115.634 55.2246 115.736 54.9783 115.941 54.7816C116.146 54.5858 116.395 54.4873 116.687 54.4873H119.18V55.249H116.687C116.487 55.249 116.386 55.3399 116.386 55.5209V56.7162C116.386 56.897 116.487 56.988 116.687 56.988H118.428V56.4991H117.408V55.7376H119.18V57.7499Z" fill="#B21E24"/><path fill-rule="evenodd" clip-rule="evenodd" d="M52.7653 18.1312L47.7496 30.1852L71.6882 7.20877L71.5549 18.0481L58.8751 30.205L71.644 22.6342L77.8926 25.7191L78.9559 19.8826L90.3896 28.7209L92.3397 26.6779L105.545 32.2644L104.165 26.2856L123.793 33.9326H152.209V32.953V32.5986V32.192H128.183L93.3589 8.8445L87.332 13.004L94.2448 21.5087L70.669 0L56.0448 14.088L54.228 12.0869L31.7895 32.1918H5.79102V32.5984V33.9323H30.8068H35.3304L52.7653 18.1312ZM96.5376 19.9902L96.1752 14.4534L118.644 28.958L99.47 18.8503L96.5376 19.9902Z" fill="#B21E24"/><path fill-rule="evenodd" clip-rule="evenodd" d="M5.79102 55.4858H31.1996V57.2263H5.79102V55.4858ZM126.8 55.4858H152.209V57.2263H126.8V55.4858Z" fill="#B21E24"/></g></svg>
